# xmcd CD database file
#
# Track frame offsets:
#	150
#	25172
#	46320
#	73105
#	95904
#	119795
#	151195
#	179397
#	203747
#	220717
#	244830
#	268197
#	321502
#
# Disc length: 4404 seconds
#
# Revision: 0
# Processed by: cddbd v1.5.1PL0 Copyright (c) Steve Scherf et al.
# Submitted via: CDex 1.51
#
DISCID=c611320d
DTITLE=The European Swing Stars - A Fine Romance
DYEAR=1999
DGENRE=Jazz
TTITLE0=The Way You Look Tonight (1936)
TTITLE1=Night And Day (1932)
TTITLE2=I Let A Song Go Out Of My Heart (1938)
TTITLE3=Deep Purple (1934)
TTITLE4=A Fine Romance (1936)
TTITLE5=Jump (1997)
TTITLE6=What's New (1939)
TTITLE7=Cheek To Cheek (1934)
TTITLE8=Hear Me Talkin' To Ya (1929)
TTITLE9=Sonny Boy (1928)
TTITLE10=Georgia On My Mind (1930)
TTITLE11=Perdido (1941)
TTITLE12=When It's Sleepy Time Down South (1931)
EXTD=YEAR: 1999
EXTT0=
EXTT1=
EXTT2=
EXTT3=
EXTT4=
EXTT5=
EXTT6=
EXTT7=
EXTT8=
EXTT9=
EXTT10=
EXTT11=
EXTT12=
PLAYORDER=
